<?xml version="1.0" standalone="no"?>
<!DOCTYPE svg PUBLIC "-//W3C//DTD SVG 20010904//EN"
 "http://www.w3.org/TR/2001/REC-SVG-20010904/DTD/svg10.dtd">
<svg version="1.0" xmlns="http://www.w3.org/2000/svg"
 width="1282.000000pt" height="1283.000000pt" viewBox="0 0 1282.000000 1283.000000"
 preserveAspectRatio="xMidYMid meet">

<g transform="translate(0.000000,1283.000000) scale(0.100000,-0.100000)"
fill="#000000" stroke="none">
<path d="M5980 10528 c-36 -5 -69 -13 -74 -19 -6 -5 -20 -9 -32 -9 -13 0 -29
-6 -36 -13 -17 -17 -77 -47 -95 -47 -7 0 -40 -13 -73 -30 -33 -16 -69 -30 -80
-30 -11 0 -29 -9 -41 -21 -11 -11 -36 -27 -55 -35 -19 -8 -58 -29 -87 -48 -28
-18 -67 -37 -84 -40 -18 -4 -33 -13 -33 -19 0 -7 -27 -28 -60 -47 -33 -19 -60
-37 -60 -40 0 -3 -16 -14 -35 -24 -19 -11 -35 -23 -35 -28 0 -4 -6 -8 -14 -8
-7 0 -25 -10 -39 -22 -40 -37 -88 -72 -108 -82 -11 -5 -19 -15 -19 -22 0 -7
-8 -15 -17 -18 -23 -7 -253 -229 -253 -243 0 -12 -66 -73 -79 -73 -5 0 -14 6
-20 14 -28 34 -121 27 -135 -10 -3 -8 -10 -14 -17 -14 -13 0 -48 -40 -49 -56
0 -6 -9 -19 -19 -28 -11 -10 -25 -31 -31 -47 -7 -16 -19 -29 -26 -29 -8 0 -14
-9 -14 -20 0 -11 -4 -20 -10 -20 -5 0 -10 -6 -10 -13 0 -8 -9 -24 -20 -37 -11
-13 -23 -35 -26 -49 -3 -14 -10 -35 -16 -46 -7 -11 -18 -33 -27 -50 -8 -16
-20 -34 -28 -38 -7 -4 -13 -19 -13 -32 0 -14 -4 -25 -9 -25 -4 0 -14 -21 -21
-47 -12 -48 -33 -103 -50 -135 -6 -10 -10 -27 -10 -38 0 -11 -6 -20 -12 -20
-7 0 -21 -26 -31 -59 -17 -54 -17 -61 -3 -96 9 -21 16 -57 16 -82 0 -24 6 -50
13 -58 8 -8 17 -48 20 -97 7 -81 19 -142 37 -183 4 -11 14 -35 22 -52 7 -18
20 -34 28 -35 26 -2 54 2 60 10 10 14 89 72 98 72 4 0 35 29 68 65 32 35 64
65 70 65 6 0 33 21 59 46 27 25 58 50 69 55 12 5 35 18 51 28 60 39 134 21
160 -38 9 -20 20 -44 25 -53 6 -10 10 -134 10 -283 0 -227 2 -266 15 -271 8
-4 15 -17 15 -30 0 -13 6 -34 13 -46 41 -72 78 -82 276 -76 170 6 237 -4 274
-40 16 -17 20 -33 20 -83 -1 -34 -5 -64 -10 -68 -6 -3 -13 -17 -16 -31 -4 -14
-22 -43 -42 -64 -19 -22 -35 -45 -35 -52 0 -13 -8 -24 -68 -90 -15 -17 -34
-51 -42 -75 -7 -24 -18 -49 -23 -56 -11 -15 -3 -154 12 -213 7 -25 15 -57 18
-72 3 -16 9 -28 14 -28 5 0 9 -18 9 -40 0 -22 -3 -40 -7 -40 -9 0 -33 -49 -33
-67 0 -9 -16 -13 -50 -13 l-49 0 22 -24 c57 -62 70 -101 75 -218 3 -81 0 -103
-17 -142 -12 -25 -21 -47 -21 -50 0 -3 -13 -19 -30 -34 -16 -16 -30 -34 -30
-41 0 -6 -7 -11 -15 -11 -8 0 -15 -4 -15 -9 0 -5 -27 -29 -60 -53 -33 -23 -60
-48 -60 -54 0 -6 -20 -22 -44 -35 -25 -13 -50 -34 -57 -46 -7 -13 -18 -23 -25
-23 -6 0 -15 -11 -18 -25 -4 -14 -11 -25 -16 -25 -6 0 -10 -6 -10 -14 0 -8 -5
-16 -11 -18 -5 -2 -13 -22 -16 -44 -5 -36 -2 -44 23 -68 26 -23 37 -26 101
-26 42 0 73 4 73 10 0 6 7 10 15 10 24 0 69 26 106 61 47 43 59 51 102 73 20
11 37 23 37 28 0 4 9 8 20 8 11 0 20 5 20 10 0 6 10 10 23 10 13 0 27 4 33 9
5 6 70 12 144 14 155 5 176 8 247 45 39 20 53 33 53 48 0 18 -7 23 -42 27
-103 12 -128 28 -128 76 0 32 26 71 46 71 7 0 14 3 16 8 5 12 100 72 115 72 7
0 13 5 13 10 0 6 6 10 14 10 8 0 30 9 48 19 18 10 48 22 65 26 18 4 35 11 38
15 3 5 27 19 52 30 26 11 54 27 62 36 9 8 33 30 54 50 62 55 63 124 2 135 -26
5 -50 49 -42 80 4 16 30 38 74 66 38 23 85 58 106 77 21 19 52 40 68 46 16 7
29 15 29 19 0 4 16 15 35 25 19 11 35 23 35 27 0 16 77 89 94 89 9 0 25 4 35
9 9 5 73 15 142 21 133 12 342 1 362 -19 6 -6 22 -11 36 -11 38 -1 121 -55
121 -79 0 -6 6 -11 13 -11 21 0 76 -65 107 -129 17 -33 30 -64 30 -69 0 -6 6
-12 14 -15 42 -17 41 -355 -1 -386 -5 -3 -16 -23 -25 -43 -29 -63 -100 -168
-114 -168 -7 0 -39 -31 -70 -70 -32 -38 -65 -72 -74 -75 -26 -8 -60 -91 -60
-144 0 -22 -10 -33 -50 -56 -27 -16 -50 -34 -50 -40 0 -6 -43 -33 -95 -59 -53
-27 -100 -57 -106 -67 -5 -11 -15 -19 -22 -19 -7 0 -24 -16 -39 -34 -30 -38
-37 -92 -15 -115 16 -16 -8 -34 -71 -53 -33 -9 -63 -29 -100 -65 -29 -29 -56
-53 -61 -53 -7 0 -25 -30 -34 -61 -3 -8 1 -26 9 -40 7 -13 13 -40 14 -59 0
-20 8 -43 18 -52 9 -10 26 -27 36 -38 11 -11 45 -32 75 -47 31 -14 59 -30 62
-35 3 -5 59 -18 125 -29 65 -11 139 -28 164 -39 96 -42 229 -51 390 -26 78 12
217 46 265 66 11 5 32 11 48 14 15 4 27 11 27 16 0 15 20 12 38 -6 13 -13 28
-15 76 -10 33 3 62 10 65 14 3 5 29 17 56 26 69 25 92 36 152 73 29 18 56 33
62 33 5 0 11 4 13 8 2 4 21 21 43 37 22 17 51 43 65 60 47 54 102 105 114 105
7 0 18 -11 24 -25 12 -26 26 -30 97 -25 61 3 143 59 211 143 20 23 43 49 52
57 38 32 122 169 122 197 0 8 7 16 15 19 23 9 60 100 85 209 13 55 24 102 26
104 2 2 24 -17 48 -42 49 -52 56 -55 87 -30 56 46 66 61 124 186 15 31 31 57
36 57 5 0 9 7 9 15 0 8 5 23 10 33 6 9 16 46 24 82 7 36 21 92 30 125 29 100
38 182 43 377 4 147 7 188 18 192 8 3 21 -1 29 -9 15 -15 66 -21 66 -7 0 4 12
20 26 35 40 44 67 233 60 432 -5 164 -32 426 -44 435 -5 3 -14 32 -22 65 -7
33 -17 64 -22 69 -4 6 -8 20 -8 32 0 12 -11 47 -25 78 -14 31 -25 66 -25 77 0
25 -27 79 -40 79 -6 0 -10 7 -10 15 0 16 -33 78 -61 114 -11 13 -19 30 -19 38
0 23 -31 70 -55 83 -25 13 -79 106 -67 114 5 3 31 8 60 12 69 9 76 20 69 101
-6 62 -20 95 -56 135 -9 9 -32 43 -51 75 -19 32 -51 74 -72 94 -21 20 -38 41
-38 46 0 5 -30 39 -67 75 -38 37 -86 85 -107 107 -22 23 -45 41 -51 41 -6 0
-33 25 -59 55 -26 31 -56 55 -66 55 -10 0 -41 21 -67 46 -26 25 -61 53 -78 61
-16 9 -32 19 -35 23 -3 4 -31 19 -62 34 -32 14 -58 31 -58 36 0 10 -166 91
-227 110 -24 7 -43 16 -43 20 0 3 -26 14 -57 24 -32 10 -69 22 -83 27 -27 8
-151 37 -185 41 -11 2 -20 9 -20 16 0 16 97 141 110 142 11 0 45 76 45 100 0
20 -37 80 -50 80 -5 0 -33 11 -62 24 -29 13 -69 27 -88 30 -19 3 -66 11 -105
17 -93 15 -472 15 -610 -1 -60 -7 -135 -14 -165 -17 -30 -2 -64 -8 -75 -13
-20 -8 -89 -21 -249 -44 -48 -7 -91 -18 -95 -25 -4 -6 -25 -14 -47 -18 -21 -3
-43 -9 -49 -13 -5 -3 -39 -15 -75 -25 -36 -10 -69 -22 -75 -26 -5 -4 -25 -10
-42 -14 -29 -6 -33 -4 -33 14 0 11 5 23 10 26 6 3 10 15 10 25 0 10 6 25 13
32 22 21 37 55 37 80 0 13 5 29 12 36 18 18 17 190 -2 202 -18 12 -102 11
-190 -2z"/>
<path d="M3668 6417 c-55 -47 -59 -100 -11 -157 20 -25 32 -30 68 -30 28 0 51
7 69 21 23 18 26 27 26 84 0 57 -3 66 -26 84 -36 28 -91 27 -126 -2z"/>
<path d="M5540 4362 c0 -5 -23 -14 -51 -21 -54 -14 -109 -63 -138 -124 -8 -17
-20 -37 -26 -43 -28 -29 -55 -188 -61 -364 -4 -111 -2 -133 18 -197 21 -65 29
-77 83 -123 48 -41 66 -50 97 -50 21 0 38 -4 38 -10 0 -5 14 -10 30 -10 17 0
30 4 30 9 0 5 12 12 26 15 32 8 74 35 74 48 0 5 10 22 22 38 17 24 22 48 27
130 4 73 10 103 21 110 26 16 0 25 -81 29 -62 2 -85 -1 -105 -14 -32 -21 -22
-33 31 -37 l40 -3 0 -84 c0 -59 -4 -86 -12 -89 -7 -2 -13 -11 -13 -21 0 -9
-15 -32 -34 -50 l-34 -33 -51 32 c-28 19 -51 40 -51 49 0 9 -10 41 -22 71 -32
83 -32 307 1 440 32 128 49 170 85 203 79 71 143 41 160 -74 10 -68 24 -83 66
-72 34 9 35 10 38 68 l3 58 -54 53 c-43 42 -62 54 -86 54 -17 0 -31 5 -31 10
0 6 -9 10 -20 10 -11 0 -20 -4 -20 -8z"/>
<path d="M2209 4307 c-149 -19 -168 -50 -38 -63 l66 -6 6 -92 c4 -50 10 -209
13 -353 4 -145 11 -263 15 -263 5 0 9 -17 9 -37 1 -68 47 -95 92 -54 l21 20
-14 353 c-8 194 -12 373 -9 398 l5 45 75 -3 c100 -3 142 4 138 25 -2 9 -16 20
-33 25 -51 15 -245 17 -346 5z"/>
<path d="M2952 4248 c-7 -7 -12 -17 -12 -24 0 -7 -6 -14 -12 -17 -16 -5 -15
-276 0 -286 5 -3 15 -95 22 -203 l14 -198 32 -6 c18 -3 46 -3 63 1 l31 7 0 81
0 82 60 -64 c33 -35 60 -70 60 -76 0 -17 23 -25 72 -25 38 0 40 1 34 27 -8 29
-69 108 -91 117 -8 3 -15 11 -15 19 0 7 -20 35 -45 60 -44 46 -55 67 -35 67 6
0 10 5 10 11 0 9 45 75 61 89 3 3 16 27 29 54 33 70 33 170 0 220 -14 20 -31
36 -37 36 -7 0 -13 4 -13 9 0 25 -205 42 -228 19z m160 -65 c43 -38 46 -124 7
-210 -11 -24 -24 -54 -29 -68 -5 -14 -14 -25 -20 -25 -12 0 -16 21 -30 150 -6
58 -14 123 -17 144 l-6 39 39 -7 c21 -4 47 -15 56 -23z"/>
<path d="M6108 4249 c-41 -23 -46 -113 -23 -399 27 -333 25 -320 52 -331 36
-14 79 -11 93 6 9 10 10 34 5 79 -4 43 -3 66 5 71 13 8 65 -45 107 -108 24
-35 35 -42 67 -45 21 -2 44 -1 52 2 22 8 -1 56 -51 109 -54 55 -135 154 -135
163 0 4 23 40 50 80 28 40 50 77 50 83 0 5 7 11 15 15 12 4 15 25 15 100 0 85
-2 97 -22 116 -12 11 -25 20 -29 20 -4 0 -14 6 -21 13 -33 34 -188 51 -230 26z
m132 -50 c42 -13 60 -48 60 -115 0 -52 -24 -140 -44 -159 -8 -9 -20 -24 -25
-33 -5 -9 -12 -15 -14 -12 -6 5 -37 268 -37 306 0 27 7 29 60 13z"/>
<path d="M8273 4241 c-3 -12 -9 -21 -14 -21 -12 0 -12 -27 0 -32 5 -1 10 -106
11 -233 4 -284 4 -285 -15 -285 -10 0 -15 10 -15 28 0 56 -107 481 -127 500
-7 8 -18 22 -23 33 -15 26 -56 25 -72 -3 -10 -17 -14 -110 -16 -365 l-3 -343
34 0 c44 0 47 9 47 176 0 143 7 204 21 182 5 -7 9 -23 9 -35 0 -13 5 -23 10
-23 6 0 10 -12 10 -27 1 -73 57 -234 93 -265 24 -22 90 -24 110 -3 10 9 18 48
24 102 9 101 7 417 -4 543 l-8 85 -33 3 c-27 3 -35 -1 -39 -17z"/>
<path d="M9323 4250 c-26 -11 -43 -64 -43 -140 -1 -97 33 -495 41 -498 5 -2 9
-21 9 -42 0 -44 18 -60 68 -60 44 0 54 19 50 96 -2 44 1 68 9 71 6 2 31 -22
56 -54 77 -99 83 -103 126 -103 22 0 42 3 44 8 10 14 -19 61 -78 127 -33 37
-74 84 -91 103 l-31 36 45 65 c24 36 50 71 57 76 16 13 35 94 35 146 0 68 -19
116 -51 130 -16 6 -29 15 -29 19 0 24 -168 40 -217 20z m117 -46 c67 -14 88
-105 51 -222 -17 -52 -56 -111 -66 -100 -4 4 -35 273 -35 304 0 26 2 27 50 18z"/>
<path d="M10078 4254 c-9 -3 -27 -22 -40 -42 -20 -32 -23 -50 -23 -132 0 -92
1 -97 37 -155 20 -33 39 -72 43 -87 4 -14 15 -28 25 -31 10 -2 34 -29 54 -58
31 -46 36 -62 36 -111 0 -31 -3 -63 -6 -72 -8 -20 -64 -22 -64 -3 0 23 -52 77
-74 77 -38 0 -44 -11 -32 -60 15 -62 39 -72 147 -66 98 5 121 15 138 61 22 61
14 115 -26 177 -20 31 -44 59 -53 61 -10 2 -20 17 -24 33 -4 15 -18 41 -31 56
-14 16 -32 46 -42 66 -9 20 -22 40 -27 44 -6 4 -10 37 -10 73 2 55 5 69 24 85
27 23 26 23 51 10 10 -6 19 -19 19 -30 0 -35 12 -50 39 -50 56 0 71 63 24 99
-16 11 -35 27 -44 35 -15 16 -111 29 -141 20z"/>
<path d="M3660 4231 c-14 -27 -13 -126 5 -352 17 -213 26 -260 56 -290 10 -10
19 -23 19 -28 0 -25 47 -41 121 -41 86 0 97 7 120 75 8 22 18 43 24 47 14 10
12 468 -2 476 -6 4 -13 33 -17 64 -8 61 -24 76 -67 63 -20 -7 -21 -10 -12
-133 4 -70 8 -203 8 -297 0 -141 -3 -178 -18 -217 -17 -43 -47 -66 -47 -36 0
6 -6 19 -13 27 -20 23 -35 107 -52 281 -8 85 -22 203 -31 262 -14 93 -19 107
-38 112 -35 9 -45 7 -56 -13z"/>
<path d="M4349 4228 c-13 -23 -6 -538 9 -648 l7 -55 72 -9 c89 -11 150 -2 133
20 -7 8 -30 14 -51 14 -49 0 -51 6 -47 180 l3 135 30 3 c66 5 95 14 95 26 0
14 -42 26 -95 26 -41 0 -45 11 -45 157 l0 112 48 3 c39 2 48 7 50 24 3 18 -4
22 -35 27 -21 4 -66 7 -100 7 -54 0 -64 -3 -74 -22z"/>
<path d="M6818 4228 c-24 -43 -6 -674 21 -701 14 -14 164 -20 181 -8 13 10 13
12 0 21 -8 5 -27 10 -42 10 -16 0 -28 5 -28 10 0 6 -7 10 -15 10 -13 0 -15 23
-15 144 0 141 0 144 23 150 12 3 34 6 49 6 30 0 78 19 78 31 0 4 -26 11 -57
14 -101 11 -93 0 -93 145 l0 129 47 3 c48 3 59 13 43 38 -7 11 -32 16 -94 18
-80 4 -85 3 -98 -20z"/>
<path d="M7406 4222 c-19 -37 -21 -184 -6 -462 14 -260 5 -237 104 -245 88 -8
130 -1 123 18 -2 7 -21 13 -42 15 -63 5 -66 13 -63 174 l3 143 55 5 c30 3 61
9 69 14 25 16 -18 36 -75 36 l-52 0 -7 103 c-4 56 -5 116 -3 132 3 28 6 30 55
35 62 6 66 9 47 34 -12 16 -30 21 -103 24 l-89 4 -16 -30z"/>
<path d="M8711 4231 c-6 -11 -14 -46 -17 -78 -7 -61 13 -519 24 -588 7 -39 8
-40 59 -49 60 -10 170 1 156 15 -5 5 -27 13 -49 16 -62 10 -64 16 -64 171 0
155 -1 152 69 152 35 0 82 22 71 34 -3 3 -35 9 -70 13 l-65 8 -3 133 -3 132
33 0 c18 0 39 4 47 9 12 8 11 12 -4 28 -14 14 -37 19 -96 22 -70 3 -78 1 -88
-18z"/>
</g>
</svg>
